<svg width="121" height="30" viewBox="0 0 121 30" fill="none" xmlns="http://www.w3.org/2000/svg">
<path d="M0.32 29V0.999998H12.44C14.9467 0.999998 17.1067 1.41333 18.92 2.24C20.7333 3.04 22.1333 4.2 23.12 5.72C24.1067 7.24 24.6 9.05333 24.6 11.16C24.6 13.24 24.1067 15.04 23.12 16.56C22.1333 18.08 20.7333 19.2533 18.92 20.08C17.1067 20.88 14.9467 21.28 12.44 21.28H3.92L6.8 18.36V29H0.32ZM6.8 19.08L3.92 16H12.08C14.08 16 15.5733 15.5733 16.56 14.72C17.5467 13.8667 18.04 12.68 18.04 11.16C18.04 9.61333 17.5467 8.41333 16.56 7.56C15.5733 6.70667 14.08 6.28 12.08 6.28H3.92L6.8 3.2V19.08ZM29.2263 29V0.999998H35.7063V29H29.2263ZM55.7513 29.48C53.5913 29.48 51.5779 29.1333 49.7113 28.44C47.8713 27.72 46.2713 26.7067 44.9112 25.4C43.5513 24.0933 42.4846 22.56 41.7113 20.8C40.9646 19.04 40.5913 17.1067 40.5913 15C40.5913 12.8933 40.9646 10.96 41.7113 9.2C42.4846 7.44 43.5513 5.90667 44.9112 4.6C46.2979 3.29333 47.9113 2.29333 49.7513 1.6C51.5913 0.879999 53.6046 0.52 55.7913 0.52C58.2179 0.52 60.4046 0.946666 62.3513 1.8C64.3246 2.62667 65.9779 3.85333 67.3113 5.48L63.1513 9.32C62.1913 8.22667 61.1246 7.41333 59.9513 6.88C58.7779 6.32 57.4979 6.04 56.1113 6.04C54.8046 6.04 53.6046 6.25333 52.5113 6.68C51.4179 7.10666 50.4713 7.72 49.6713 8.52C48.8713 9.32 48.2446 10.2667 47.7913 11.36C47.3646 12.4533 47.1513 13.6667 47.1513 15C47.1513 16.3333 47.3646 17.5467 47.7913 18.64C48.2446 19.7333 48.8713 20.68 49.6713 21.48C50.4713 22.28 51.4179 22.8933 52.5113 23.32C53.6046 23.7467 54.8046 23.96 56.1113 23.96C57.4979 23.96 58.7779 23.6933 59.9513 23.16C61.1246 22.6 62.1913 21.76 63.1513 20.64L67.3113 24.48C65.9779 26.1067 64.3246 27.3467 62.3513 28.2C60.4046 29.0533 58.2046 29.48 55.7513 29.48ZM77.2138 29V6.28H68.2538V0.999998H92.6538V6.28H83.6938V29H77.2138ZM108.112 29.48C104.138 29.48 101.032 28.3733 98.7916 26.16C96.5516 23.9467 95.4316 20.7867 95.4316 16.68V0.999998H101.912V16.44C101.912 19.1067 102.458 21.0267 103.552 22.2C104.645 23.3733 106.178 23.96 108.152 23.96C110.125 23.96 111.658 23.3733 112.752 22.2C113.845 21.0267 114.392 19.1067 114.392 16.44V0.999998H120.792V16.68C120.792 20.7867 119.672 23.9467 117.432 26.16C115.192 28.3733 112.085 29.48 108.112 29.48Z" fill="#F7FAFC"/>
</svg>
